<?xml version="1.0" encoding="iso-8859-1"?>
<!-- Generator: Adobe Illustrator 18.1.1, SVG Export Plug-In . SVG Version: 6.00 Build 0)  -->
<svg version="1.1" id="Capa_1" xmlns="http://www.w3.org/2000/svg" xmlns:xlink="http://www.w3.org/1999/xlink" x="0px" y="0px"
	 viewBox="0 0 16 16" style="enable-background:new 0 0 16 16;" xml:space="preserve">
<g>
	<g>
		<path style="fill:#010002;" d="M13,0H3C1.343,0,0,1.343,0,3v10c0,1.657,1.343,3,3,3h10c1.657,0,3-1.343,3-3V3
			C16,1.343,14.657,0,13,0z M5.056,10.004c-1.121,0-2.029-0.908-2.029-2.029s0.908-2.029,2.029-2.029s2.029,0.908,2.029,2.029
			S6.177,10.004,5.056,10.004z M10.965,10.004c-1.121,0-2.029-0.908-2.029-2.029s0.908-2.029,2.029-2.029s2.029,0.908,2.029,2.029
			S12.086,10.004,10.965,10.004z"/>
	</g>
</g>
<g>
</g>
<g>
</g>
<g>
</g>
<g>
</g>
<g>
</g>
<g>
</g>
<g>
</g>
<g>
</g>
<g>
</g>
<g>
</g>
<g>
</g>
<g>
</g>
<g>
</g>
<g>
</g>
<g>
</g>
</svg>
